<svg xmlns="http://www.w3.org/2000/svg" version="1.1" xmlns:xlink="http://www.w3.org/1999/xlink" xmlns:svgjs="http://svgjs.dev/svgjs" viewBox="0 0 800 800"><defs><linearGradient x1="50%" y1="0%" x2="50%" y2="100%" id="uundulate-grad"><stop stop-color="hsl(37, 99%, 67%)" stop-opacity="1" offset="45%"></stop><stop stop-color="hsl(316, 73%, 52%)" stop-opacity="1" offset="100%"></stop></linearGradient></defs><g stroke-width="2" stroke="url(#uundulate-grad)" fill="none"><path d="M634.6065861820822 161.54179388230028C685.087466426696 241.40806247517565 703.2193242732695 504.5576722369376 598.9702490912739 601.5362221602982C494.72117390927815 698.5147720836587 184.69190555311724 706.9051021073067 134.21102530850345 627.0388335144318C83.73014506388961 547.1725649215568 252.41294873513198 315.15668283785794 356.6620239171277 218.17813291449744C460.91109909912336 121.19958299113688 584.1257059374684 81.67552528942497 634.6065861820822 161.54179388230028C685.087466426696 241.40806247517565 703.2193242732695 504.5576722369376 598.9702490912739 601.5362221602982 "></path><path d="M623.9426837384365 172.3808185100757C672.1289785173859 248.61680216691127 689.4366610072971 499.80506603041124 589.9261801517557 592.3755000481644C490.41569929621437 684.9459340659179 194.47867041078803 692.9548854521272 146.29237563183852 616.7189017952921C98.10608085288897 540.4829181384569 259.1214843572567 319.0132125131081 358.63196521279804 226.4427784953548C458.14244606833927 133.8723444776016 575.7563889594869 96.14483485324013 623.9426837384365 172.3808185100757C672.1289785173859 248.61680216691127 689.4366610072971 499.80506603041124 589.9261801517557 592.3755000481644 "></path><path d="M613.2787660360016 183.21984313785111C659.1704753492868 255.8255418586469 675.6539824825355 495.052459823885 580.8820959534485 583.2147779360309C486.1102094243615 671.3770960481768 204.2654200096698 679.0046687969477 158.37371069638453 606.3989700761524C112.48200138309926 533.793271355357 265.83000472059234 322.86974218835803 360.6018912496793 234.70742407621213C455.3737777787662 146.54510596406624 567.3870567227164 110.61414441705534 613.2787660360016 183.21984313785111C659.1704753492868 255.8255418586469 675.6539824825355 495.052459823885 580.8820959534485 583.2147779360309 "></path><path d="M602.6148025571995 194.05885250683747C646.2119264048206 263.03426629159344 661.8712581814068 490.29983835856956 571.8379659787742 574.0540405651083C481.8046737761415 657.8082427716469 214.05212383218435 665.0544368829792 170.45499998456336 596.0790230982236C126.85787613694231 527.103609313468 272.53847930756075 326.7262566048191 362.57177151019334 242.97205439828048C452.605063712826 159.21785219174183 559.0176787095785 125.0834387220815 602.6148025571995 194.05885250683747C646.2119264048206 263.03426629159344 661.8712581814068 490.29983835856956 571.8379659787742 574.0540405651083 "></path><path d="M591.9508695959756 204.89784661703476C633.2534079779323 270.242975465751 648.0885643978562 485.5472016344652 562.793866521678 564.8932879353965C477.4991686454996 644.2393742363279 223.838858172277 651.1041897102218 182.5363197903203 585.7590608615059C141.23378140836354 520.41393201279 279.2469844121073 330.58275576249105 364.54168228828553 251.2366694615597C449.8363801644639 171.89058316062835 550.6483312140189 139.5527177683186 591.9508695959756 204.89784661703476C633.2534079779323 270.242975465751 648.0885643978562 485.5472016344652 562.793866521678 564.8932879353965 "></path><path d="M581.2869366347518 215.73687124481017C620.2948895510442 277.4517151574866 634.3058706143056 480.79459542793893 553.7497670645816 555.732565823263C473.1936635148577 630.670536218587 233.62559251236974 637.1539730550423 194.61763959607725 575.4391291423663C155.60968667978477 513.7242852296902 285.95548951665387 334.4392854377411 366.5115930663778 259.50131504241705C447.0676966161018 184.563344647093 542.2789837184591 154.02202733213375 581.2869366347518 215.73687124481017C620.2948895510442 277.4517151574866 634.3058706143056 480.79459542793893 553.7497670645816 555.732565823263 "></path><path d="M570.6230036735278 226.57586535500747C607.336371124156 284.6604243316441 620.523176830755 476.04195870383455 544.7056676074853 546.5718131935514C468.8881583842158 617.101667683268 243.4123268524624 623.2037258822847 206.6989594018342 565.1191669056484C169.98559195120595 507.03460792901217 292.6639946212004 338.29578459541307 368.48150384447 267.76593010569627C444.29901306773957 197.23607561597953 533.9096362228996 168.49130637837084 570.6230036735278 226.57586535500747C607.336371124156 284.6604243316441 620.523176830755 476.04195870383455 544.7056676074853 546.5718131935514 "></path><path d="M559.9590554535148 237.41485946520476C594.3778374384788 291.8691335058016 606.7404677884153 471.2893219797302 535.6615528916001 537.4110605638396C464.5826379947848 603.532799147949 253.199045933766 609.2534787095273 218.7802639488021 554.7992046689308C184.36148196383812 500.34493062833417 299.3724844669579 342.15228375308504 370.45139936377313 276.03054516897555C441.5303142605884 209.90880658486606 525.5402734685508 182.96058542460793 559.9590554535148 237.41485946520476C594.3778374384788 291.8691335058016 606.7404677884153 471.2893219797302 535.6615528916001 537.4110605638396 "></path><path d="M549.29513775108 248.25388409298017C581.4193342703797 299.0778731975372 592.9577892636537 466.5367157732039 526.617468693293 528.250338451706C460.277148122932 589.9639611302082 262.9857955326478 595.3032620543479 230.86159901334804 544.479272949791C198.73740249404835 493.6552838452343 306.0810048302935 346.00881342833503 372.4213254006544 284.2951907498329C438.76164597101524 222.5815680713307 517.1709412317803 197.42989498842314 549.29513775108 248.25388409298017C581.4193342703797 299.0778731975372 592.9577892636537 466.5367157732039 526.617468693293 528.250338451706 "></path><path d="M538.631174272278 259.0929087207556C568.4607853259134 306.2866128892728 579.1750649625251 461.78410956667756 517.5733387186185 519.0896163395724C455.97161247471195 576.3951231124673 272.7724993551623 581.3530453991684 242.94288830152686 534.1593412306514C213.11327724789146 486.9656370621344 312.789479417262 349.86534310358513 374.3912056611685 292.55983633069025C435.992931905075 235.25432955779536 508.8015632186425 211.8992045522383 538.631174272278 259.0929087207556C568.4607853259134 306.2866128892728 579.1750649625251 461.78410956667756 517.5733387186185 519.0896163395724 "></path><path d="M527.9672565698431 269.9319028309529C555.5022821578143 313.4953220634303 565.3923864377634 457.0314728425732 508.52925452031127 509.9288637098607C451.6661226028591 562.8262545771483 282.55924895404405 567.4027982264108 255.02422336607287 523.8393789939337C227.48919777810175 480.2759597614564 319.4979997805976 353.72184226125705 376.36113169804975 300.82445139396947C433.22426361550197 247.92706052668194 500.43223098187195 226.3684835984754 527.9672565698431 269.9319028309529C555.5022821578143 313.4953220634303 565.3923864377634 457.0314728425732 508.52925452031127 509.9288637098607 "></path><path d="M517.3033083498301 280.7709274587283C542.543748472137 320.704061755166 551.6096773954239 452.2788666360469 499.485139804426 500.7681415977272C447.36060221342814 549.2574165594075 292.3459680353477 553.4525815712315 267.10552791304076 513.519447274794C241.86508779073387 473.58631297835655 326.20648962635505 357.5783719365071 378.3310272173529 309.0890969748268C430.4555648083508 260.5998220131466 492.06286822752327 240.8377931622906 517.3033083498301 280.7709274587283C542.543748472137 320.704061755166 551.6096773954239 452.2788666360469 499.485139804426 500.7681415977272 "></path><path d="M506.63937538860625 291.6099063101365C529.5852300452489 327.9127556705344 537.8269836118732 447.5262146531534 490.4410403473297 491.6073737092264C443.05509708278623 535.6885327652993 302.1327023754404 539.5023191396848 279.1868477187977 503.19946977928714C256.2409930621551 466.89662041888937 332.91499473090164 361.43485583538995 380.3009379954451 317.35369677931703C427.6868812599886 273.27253772324406 483.69352073196364 255.30705694973864 506.63937538860625 291.6099063101365C529.5852300452489 327.9127556705344 537.8269836118732 447.5262146531534 490.4410403473297 491.6073737092264 "></path><path d="M495.97542716859334 302.44890042033376C516.6266963595716 335.1214648446919 524.0442745695336 442.773577929049 481.39692563144445 482.44662107951467C438.74957669335527 522.1196642299803 311.919421456744 525.5520719669273 291.2681522657656 492.8795075425694C270.6168830747872 460.2069431182115 339.6234845766591 365.29135499306193 382.27083351474823 325.61831184259626C424.9181824528374 285.9452686921306 475.32415797761496 269.77633599597567 495.97542716859334 302.44890042033376C516.6266963595716 335.1214648446919 524.0442745695336 442.773577929049 481.39692563144445 482.44662107951467 "></path><path d="M485.31150946615844 313.2879250481092C503.6681931914725 342.3302045364275 510.261596044772 438.02097172252275 472.3528414331372 473.2858989673812C434.4440868215024 508.5508262122395 321.70617105562576 511.60185531174784 303.3494873303116 482.55957582342967C284.9928036049975 453.5172963351115 346.33200493999476 369.14788466831203 384.24075955162954 333.8829574234536C422.1495141632643 298.61803017859523 466.9548257408444 284.2456455597909 485.31150946615844 313.2879250481092C503.6681931914725 342.3302045364275 510.261596044772 438.02097172252275 472.3528414331372 473.2858989673812 "></path><path d="M474.64757650493453 324.1269496758846C490.7096747645844 349.53894422816313 496.4789022612214 433.2683655159965 463.308741976041 464.12517685524756C430.1385816908605 494.9819881944986 331.4929053957184 497.6516386565685 315.43080713606855 472.23964410429005C299.36870887641874 446.8276495520117 353.0405100445413 373.0044143435621 386.2106703297217 342.14760300431095C419.38083061490215 311.2907916650599 458.58547824528466 298.7149551236061 474.64757650493453 324.1269496758846C490.7096747645844 349.53894422816313 496.4789022612214 433.2683655159965 463.308741976041 464.12517685524756 "></path><path d="M463.98362828492156 334.9659437860819C477.75114107890715 356.7476534023206 482.6961932188817 428.51572879189206 454.26462726015563 454.9644242255358C425.83306130142955 481.41311965917964 341.279624477022 483.7013914838109 327.51211168303644 461.9196818675723C313.74459888905085 440.1379722513337 359.7489998902988 376.860913501234 388.1805658490249 350.41221806759023C416.612131807751 323.9635226339464 450.216115490936 313.1842341698432 463.98362828492156 334.9659437860819C477.75114107890715 356.7476534023206 482.6961932188817 428.51572879189206 454.26462726015563 454.9644242255358 "></path><path d="M453.3196800649086 345.80495315506823C464.7926073932299 363.9563778352672 468.91348417654206 423.7631073265767 445.2205125442703 445.8036868546132C421.5275409119986 467.84426638264966 351.0663435583256 469.7511595698424 339.5934162300043 451.59973488964357C328.120488901683 433.4483102094447 366.4574897360563 380.717427917695 390.150461368328 358.6768483896585C413.84343300059976 336.636268861622 441.8467527365873 327.6535284748693 453.3196800649086 345.80495315506823C464.7926073932299 363.9563778352672 468.91348417654206 423.7631073265767 445.2205125442703 445.8036868546132 "></path><path d="M442.6557471036847 356.6439625240546C451.8340889663417 371.1651022682138 455.13079039299146 419.0104858612614 436.17641308717407 436.6429494836906C417.2220357813567 454.27541310611974 360.85307789841835 455.8009276558739 351.67473603576127 441.27978791171483C342.49639417310425 426.75864816755575 373.1659948406028 384.573942334156 392.1203721464202 366.9414787117268C411.0747494522376 349.30901508929765 433.47740524102767 342.12282277989544 442.6557471036847 356.6439625240546C451.8340889663417 371.1651022682138 455.13079039299146 419.0104858612614 436.17641308717407 436.6429494836906 "></path><path d="M431.9918141424608 367.48297189304094C438.8755705394536 378.37382670116034 441.34809660944086 414.25786439594606 427.1323136300778 427.4822121127679C412.9165306507148 440.7065598295898 370.639812238511 441.85069574190544 363.7560558415182 430.95984093378615C356.8722994445254 420.0689861256668 379.8744999451494 388.430456750617 394.09028292451245 375.2061090337951C408.3060659038755 361.98176131697323 425.108057745468 356.5921170849216 431.9918141424608 367.48297189304094C438.8755705394536 378.37382670116034 441.34809660944086 414.25786439594606 427.1323136300778 427.4822121127679 "></path><path d="M421.3278659224478 378.3219812620273C425.9170368537763 385.5825511341069 427.5653875671012 409.5052429306307 418.0881989141925 418.3214747418453C408.6110102612838 427.1377065530599 380.4265313198146 427.90046382793696 375.8373603884861 420.6398939558574C371.2481894571576 413.3793240837779 386.5829897909069 392.286971167078 396.0601784438156 383.47073935586343C405.53736709672427 374.6545075446488 416.7386949911193 371.0614113899477 421.3278659224478 378.3219812620273C425.9170368537763 385.5825511341069 427.5653875671012 409.5052429306307 418.0881989141925 418.3214747418453 "></path><path d="M410.6639329612239 389.16099063101365C412.9585184268882 392.79127556705345 413.7826937835506 404.7526214653153 409.04409945709625 409.1607373709226C404.3055051306419 413.5688532765299 390.21326565990734 413.9502319139685 387.91868019424305 410.31994697792874C385.62409472857877 406.68966204188894 393.29149489545347 396.143485583539 398.0300892219078 391.7353696779317C402.76868354836216 387.3272537723244 408.3693474955596 385.53070569497385 410.6639329612239 389.16099063101365C412.9585184268882 392.79127556705345 413.7826937835506 404.7526214653153 409.04409945709625 409.1607373709226 "></path></g></svg>